<svg width="500" height="500" xml:space="preserve" xmlns="http://www.w3.org/2000/svg">
    <path style="fill: none; stroke: #fff; stroke-width: 20; stroke-linejoin: round; stroke-dasharray: none; stroke-opacity: 1;" d="M180 60 C220 60 280 80 320 120 C340 140 360 180 380 200 C400 220 420 220 440 200 C460 180 460 140 440 120 C420 100 380 100 360 120 C340 140 340 180 360 220 C380 260 420 300 420 340 C420 380 400 420 360 440 C320 460 260 460 200 440 C160 420 120 380 100 340 C80 300 60 260 60 220 C60 180 80 140 120 120 C140 100 160 80 180 60Z" />
    <path style="fill: none; stroke: #000; stroke-width: 5; stroke-linejoin: round; stroke-dasharray: none; stroke-opacity: 1;" d="M180 60 C220 60 280 80 320 120 C340 140 360 180 380 200 C400 220 420 220 440 200 C460 180 460 140 440 120 C420 100 380 100 360 120 C340 140 340 180 360 220 C380 260 420 300 420 340 C420 380 400 420 360 440 C320 460 260 460 200 440 C160 420 120 380 100 340 C80 300 60 260 60 220 C60 180 80 140 120 120 C140 100 160 80 180 60Z" />
</svg>
