<svg width="500" height="500" xml:space="preserve" xmlns="http://www.w3.org/2000/svg">
    <path style="fill: none; stroke: #fff; stroke-width: 20; stroke-linejoin: round; stroke-dasharray: none; stroke-opacity: 1;" d="M120 140 L200 60 L280 60 L380 100 L420 160 C440 200 440 260 420 300 L380 360 L300 420 L200 440 L120 400 C80 380 60 340 60 300 L60 220 C60 180 80 160 120 140Z" />
    <path style="fill: none; stroke: #000; stroke-width: 5; stroke-linejoin: round; stroke-dasharray: none; stroke-opacity: 1;" d="M120 140 L200 60 L280 60 L380 100 L420 160 C440 200 440 260 420 300 L380 360 L300 420 L200 440 L120 400 C80 380 60 340 60 300 L60 220 C60 180 80 160 120 140Z" />
</svg>
