<svg width="500" height="500" xml:space="preserve" xmlns="http://www.w3.org/2000/svg">
    <path style="fill: none; stroke: #fff; stroke-width: 20; stroke-linejoin: round; stroke-dasharray: none; stroke-opacity: 1;" d="M100 200 C100 120 180 60 260 60 C320 60 360 100 380 140 C400 180 440 200 460 160 C480 120 480 80 440 60 C400 40 360 60 340 100 C320 140 280 180 240 200 C200 220 160 260 140 300 C120 340 100 400 140 440 C180 480 260 480 340 460 C420 440 460 380 460 320 C460 260 420 220 380 200 C340 180 300 200 280 240 C260 280 240 340 200 360 C160 380 120 360 100 320 C80 280 80 240 100 200Z" />
    <path style="fill: none; stroke: #000; stroke-width: 5; stroke-linejoin: round; stroke-dasharray: none; stroke-opacity: 1;" d="M100 200 C100 120 180 60 260 60 C320 60 360 100 380 140 C400 180 440 200 460 160 C480 120 480 80 440 60 C400 40 360 60 340 100 C320 140 280 180 240 200 C200 220 160 260 140 300 C120 340 100 400 140 440 C180 480 260 480 340 460 C420 440 460 380 460 320 C460 260 420 220 380 200 C340 180 300 200 280 240 C260 280 240 340 200 360 C160 380 120 360 100 320 C80 280 80 240 100 200Z" />
</svg>
